name rise30.8019peak61.5557fall86.2505.mot
datacolumns 19
datarows 21
range 2.53332500000000 2.56666000000000
endheader
time	ground_force1_vx	ground_force1_vy	ground_force1_vz	ground_force1_px	ground_force1_py	ground_force1_pz	ground_force2_vx	ground_force2_vy	ground_force2_vz	ground_force2_px	ground_force2_py	ground_force2_pz	ground_torque1_x	ground_torque1_y	ground_torque1_z	ground_torque2_x	ground_torque2_y	ground_torque2_z	
2.53332500000000	56.33864900000000	759.33165499999996	44.29872400000000	0.25832400000000	0.00000000000000	0.10515100000000	0.00000000000000	0.00000000000000	0.00000000000000	0.00000000000000	0.00000000000000	0.00000000000000	0.00000000000000	11.17761900000000	0.00000000000000	0.00000000000000	0.00000000000000	0.00000000000000	
2.53499700000000	55.75846500000000	759.85534800000005	44.37461800000000	0.25724400000000	0.00000000000000	0.10517100000000	0.00000000000000	0.00000000000000	0.00000000000000	0.00000000000000	0.00000000000000	0.00000000000000	0.00000000000000	11.22863400000000	0.00000000000000	0.00000000000000	0.00000000000000	0.00000000000000	
2.53666500000000	55.17246600000000	760.24331900000004	44.44712200000000	0.25614900000000	0.00000000000000	0.10519100000000	0.00000000000000	0.00000000000000	0.00000000000000	0.00000000000000	0.00000000000000	0.00000000000000	0.00000000000000	11.27903600000000	0.00000000000000	0.00000000000000	0.00000000000000	0.00000000000000	
2.53832600000000	54.58074200000000	760.49819700000000	44.51566600000000	0.25504100000000	0.00000000000000	0.10521300000000	0.00000000000000	0.00000000000000	0.00000000000000	0.00000000000000	0.00000000000000	0.00000000000000	0.00000000000000	11.32855500000000	0.00000000000000	0.00000000000000	0.00000000000000	0.00000000000000	
2.53999800000000	53.98338900000000	760.62280499999997	44.57966500000000	0.25391700000000	0.00000000000000	0.10523600000000	0.00000000000000	0.00000000000000	0.00000000000000	0.00000000000000	0.00000000000000	0.00000000000000	0.00000000000000	11.37692000000000	0.00000000000000	0.00000000000000	0.00000000000000	0.00000000000000	
2.54165900000000	53.38051300000000	760.62016000000006	44.63853100000000	0.25277900000000	0.00000000000000	0.10526000000000	0.00000000000000	0.00000000000000	0.00000000000000	0.00000000000000	0.00000000000000	0.00000000000000	0.00000000000000	11.42385800000000	0.00000000000000	0.00000000000000	0.00000000000000	0.00000000000000	
2.54332400000000	52.77223100000000	760.49346600000001	44.69166700000000	0.25162500000000	0.00000000000000	0.10528500000000	0.00000000000000	0.00000000000000	0.00000000000000	0.00000000000000	0.00000000000000	0.00000000000000	0.00000000000000	11.46910100000000	0.00000000000000	0.00000000000000	0.00000000000000	0.00000000000000	
2.54499200000000	52.15867600000000	760.24610399999995	44.73848300000000	0.25045500000000	0.00000000000000	0.10531100000000	0.00000000000000	0.00000000000000	0.00000000000000	0.00000000000000	0.00000000000000	0.00000000000000	0.00000000000000	11.51238200000000	0.00000000000000	0.00000000000000	0.00000000000000	0.00000000000000	
2.54666100000000	51.53999200000000	759.88162899999998	44.77839200000000	0.24926900000000	0.00000000000000	0.10533800000000	0.00000000000000	0.00000000000000	0.00000000000000	0.00000000000000	0.00000000000000	0.00000000000000	0.00000000000000	11.55344100000000	0.00000000000000	0.00000000000000	0.00000000000000	0.00000000000000	
2.54832500000000	50.91634200000000	759.40375800000004	44.81082200000000	0.24806800000000	0.00000000000000	0.10536500000000	0.00000000000000	0.00000000000000	0.00000000000000	0.00000000000000	0.00000000000000	0.00000000000000	0.00000000000000	11.59202900000000	0.00000000000000	0.00000000000000	0.00000000000000	0.00000000000000	
2.54999400000000	50.28790700000000	758.81636100000003	44.83521500000000	0.24685100000000	0.00000000000000	0.10539400000000	0.00000000000000	0.00000000000000	0.00000000000000	0.00000000000000	0.00000000000000	0.00000000000000	0.00000000000000	11.62790500000000	0.00000000000000	0.00000000000000	0.00000000000000	0.00000000000000	
2.55166300000000	49.65488300000000	758.12345500000004	44.85103300000000	0.24561800000000	0.00000000000000	0.10542300000000	0.00000000000000	0.00000000000000	0.00000000000000	0.00000000000000	0.00000000000000	0.00000000000000	0.00000000000000	11.66084200000000	0.00000000000000	0.00000000000000	0.00000000000000	0.00000000000000	
2.55332700000000	49.01748800000000	757.32918900000004	44.85776400000000	0.24437100000000	0.00000000000000	0.10545200000000	0.00000000000000	0.00000000000000	0.00000000000000	0.00000000000000	0.00000000000000	0.00000000000000	0.00000000000000	11.69062700000000	0.00000000000000	0.00000000000000	0.00000000000000	0.00000000000000	
2.55498900000000	48.37596000000000	756.43783800000006	44.85492400000000	0.24310800000000	0.00000000000000	0.10548100000000	0.00000000000000	0.00000000000000	0.00000000000000	0.00000000000000	0.00000000000000	0.00000000000000	0.00000000000000	11.71706400000000	0.00000000000000	0.00000000000000	0.00000000000000	0.00000000000000	
2.55666100000000	47.73055300000000	755.45378800000003	44.84206400000000	0.24183200000000	0.00000000000000	0.10551100000000	0.00000000000000	0.00000000000000	0.00000000000000	0.00000000000000	0.00000000000000	0.00000000000000	0.00000000000000	11.73997400000000	0.00000000000000	0.00000000000000	0.00000000000000	0.00000000000000	
2.55833000000000	47.08154600000000	754.38152900000000	44.81876600000000	0.24054100000000	0.00000000000000	0.10554100000000	0.00000000000000	0.00000000000000	0.00000000000000	0.00000000000000	0.00000000000000	0.00000000000000	0.00000000000000	11.75919700000000	0.00000000000000	0.00000000000000	0.00000000000000	0.00000000000000	
2.55999600000000	46.42923500000000	753.22563900000000	44.78465700000000	0.23923800000000	0.00000000000000	0.10557100000000	0.00000000000000	0.00000000000000	0.00000000000000	0.00000000000000	0.00000000000000	0.00000000000000	0.00000000000000	11.77459300000000	0.00000000000000	0.00000000000000	0.00000000000000	0.00000000000000	
2.56167400000000	45.77393400000000	751.99077199999999	44.73940200000000	0.23792300000000	0.00000000000000	0.10560100000000	0.00000000000000	0.00000000000000	0.00000000000000	0.00000000000000	0.00000000000000	0.00000000000000	0.00000000000000	11.78604300000000	0.00000000000000	0.00000000000000	0.00000000000000	0.00000000000000	
2.56332400000000	45.11598000000000	750.68164999999999	44.68271300000000	0.23659600000000	0.00000000000000	0.10563100000000	0.00000000000000	0.00000000000000	0.00000000000000	0.00000000000000	0.00000000000000	0.00000000000000	0.00000000000000	11.79345100000000	0.00000000000000	0.00000000000000	0.00000000000000	0.00000000000000	
2.56499000000000	44.45572500000000	749.30304500000000	44.61434900000000	0.23526000000000	0.00000000000000	0.10566000000000	0.00000000000000	0.00000000000000	0.00000000000000	0.00000000000000	0.00000000000000	0.00000000000000	0.00000000000000	11.79674200000000	0.00000000000000	0.00000000000000	0.00000000000000	0.00000000000000	
2.56666000000000	43.79354000000000	747.85977200000002	44.53411700000000	0.23391400000000	0.00000000000000	0.10568900000000	0.00000000000000	0.00000000000000	0.00000000000000	0.00000000000000	0.00000000000000	0.00000000000000	0.00000000000000	11.79586500000000	0.00000000000000	0.00000000000000	0.00000000000000	0.00000000000000	
